<svg width="89" height="89" viewBox="0 0 89 89" fill="none" xmlns="http://www.w3.org/2000/svg">
<mask id="mask0_1404_4611" style="mask-type:luminance" maskUnits="userSpaceOnUse" x="0" y="0" width="89" height="89">
<path d="M44.4974 88.9576C50.3368 88.9652 56.1202 87.8187 61.5152 85.5839C66.9101 83.3492 71.8102 80.0704 75.9339 75.9358C80.0684 71.8121 83.3473 66.912 85.582 61.5171C87.8167 56.1222 88.9633 50.3388 88.9557 44.4993C88.9631 38.6599 87.8166 32.8766 85.5818 27.4817C83.3471 22.0867 80.0683 17.1866 75.9339 13.0629C71.8102 8.92831 66.9101 5.64946 61.5152 3.41474C56.1202 1.18001 50.3368 0.0334928 44.4974 0.0410528C38.658 0.0336128 32.8746 1.18019 27.4797 3.41491C22.0848 5.64963 17.1847 8.92841 13.0609 13.0629C8.9265 17.1866 5.64767 22.0867 3.41296 27.4817C1.17824 32.8766 0.0316597 38.6599 0.0390997 44.4993C0.0315297 50.3388 1.17806 56.1222 3.41279 61.5171C5.64751 66.912 8.9264 71.8121 13.0609 75.9358C17.1847 80.0703 22.0848 83.3491 27.4797 85.5838C32.8746 87.8185 38.658 88.9651 44.4974 88.9576Z" fill="white"/>
<path d="M26.7129 44.4986L40.0504 57.8361L66.7254 31.1611" stroke="black" stroke-width="8.81667" stroke-linecap="round" stroke-linejoin="round"/>
</mask>
<g mask="url(#mask0_1404_4611)">
<path d="M-8.84766 -8.85059H97.852V97.8493H-8.84766V-8.85059Z" fill="white" fill-opacity="0.75"/>
</g>
</svg>
