<svg width="150" height="150" viewBox="0 0 150 150" fill="none" xmlns="http://www.w3.org/2000/svg">
<rect x="82.1709" y="29.737" width="54.0087" height="18.3462" rx="8" transform="rotate(44.664 82.1709 29.737)" fill="#547CE3" fill-opacity="0.5"/>
<rect x="82.1792" y="31.1512" width="52.0087" height="16.3462" rx="7" transform="rotate(44.664 82.1792 31.1512)" stroke="#AFAFAF" stroke-opacity="0.5" stroke-width="2"/>
<rect x="96.6771" y="21.6346" width="48.3894" height="14.4231" rx="7.21154" transform="rotate(44.664 96.6771 21.6346)" fill="#547CE3" fill-opacity="0.5"/>
<rect x="96.6854" y="23.0488" width="46.3894" height="12.4231" rx="6.21154" transform="rotate(44.664 96.6854 23.0488)" stroke="#AFAFAF" stroke-opacity="0.5" stroke-width="2"/>
<rect x="67.6879" y="120.364" width="54.0087" height="18.3411" rx="8" transform="rotate(-135.147 67.6879 120.364)" fill="#547CE3" fill-opacity="0.5"/>
<rect x="67.6842" y="118.95" width="52.0087" height="16.3411" rx="7" transform="rotate(-135.147 67.6842 118.95)" stroke="#AFAFAF" stroke-opacity="0.5" stroke-width="2"/>
<rect x="54.4962" y="130.891" width="48.3889" height="14.4231" rx="7.21154" transform="rotate(-135.147 54.4962 130.891)" fill="#547CE3" fill-opacity="0.5"/>
<rect x="54.4926" y="129.477" width="46.3889" height="12.4231" rx="6.21154" transform="rotate(-135.147 54.4926 129.477)" stroke="#AFAFAF" stroke-opacity="0.5" stroke-width="2"/>
<rect x="60.1552" y="82.4983" width="31.9032" height="12.9808" rx="1" transform="rotate(-45.0658 60.1552 82.4983)" fill="#547CE3" fill-opacity="0.5"/>
<rect x="60.8623" y="82.4975" width="30.9032" height="11.9808" rx="0.5" transform="rotate(-45.0658 60.8623 82.4975)" stroke="#AFAFAF" stroke-opacity="0.5"/>
</svg>
