<svg width="230" height="230" viewBox="0 0 230 230" fill="none" xmlns="http://www.w3.org/2000/svg">
<path d="M103.596 195.308C97.8229 195.302 92.283 193.03 88.1667 188.983L40.25 141.067C38.2188 139.053 36.6066 136.657 35.5064 134.017C34.4061 131.377 33.8396 128.545 33.8396 125.685C33.8396 122.826 34.4061 119.994 35.5064 117.354C36.6066 114.713 38.2188 112.318 40.25 110.304L42.4542 108.004C46.5624 103.943 52.1063 101.665 57.8834 101.665C63.6603 101.665 69.2043 103.943 73.3125 108.004L121.229 155.921C123.26 157.934 124.873 160.33 125.973 162.97C127.073 165.611 127.639 168.442 127.639 171.302C127.639 174.162 127.073 176.994 125.973 179.634C124.873 182.274 123.26 184.67 121.229 186.683L119.025 188.983C114.909 193.03 109.369 195.302 103.596 195.308ZM57.9792 116.054C57.0195 116.043 56.0672 116.223 55.1784 116.585C54.2896 116.947 53.4823 117.483 52.8042 118.162L50.5042 120.462C49.8174 121.148 49.2726 121.962 48.9009 122.858C48.5292 123.754 48.3378 124.715 48.3378 125.685C48.3378 126.655 48.5292 127.616 48.9009 128.512C49.2726 129.409 49.8174 130.223 50.5042 130.908L98.4209 178.825C99.821 180.217 101.717 180.999 103.692 180.999C105.667 180.999 107.561 180.217 108.963 178.825L111.167 176.525C111.87 175.841 112.429 175.02 112.807 174.115C113.186 173.209 113.378 172.236 113.371 171.254C113.376 170.287 113.183 169.329 112.804 168.439C112.425 167.548 111.867 166.746 111.167 166.079L63.25 118.162C62.5542 117.48 61.7301 116.943 60.8254 116.581C59.9208 116.219 58.9534 116.04 57.9792 116.054Z" fill="black"/>
<path d="M171.733 128.129C165.949 128.087 160.411 125.782 156.304 121.708L108.388 73.7917C104.303 69.6958 102.009 64.1472 102.009 58.3625C102.009 52.5779 104.303 47.0293 108.388 42.9333L110.688 40.6333C114.78 36.5778 120.307 34.3024 126.069 34.3024C131.83 34.3024 137.358 36.5778 141.45 40.6333L189.367 88.55C193.422 92.642 195.697 98.1698 195.697 103.931C195.697 109.693 193.422 115.22 189.367 119.312L187.067 121.613C183 125.699 177.498 128.036 171.733 128.129ZM126.117 48.7792C125.149 48.7684 124.189 48.9589 123.298 49.3383C122.407 49.7177 121.605 50.2778 120.942 50.9833L118.642 53.1875C117.249 54.5881 116.467 56.4831 116.467 58.4583C116.467 60.4337 117.249 62.3286 118.642 63.7292L166.558 111.646C167.958 113.038 169.854 113.82 171.829 113.82C173.804 113.82 175.699 113.038 177.1 111.646L179.304 109.346C180.005 108.679 180.562 107.876 180.941 106.986C181.321 106.096 181.513 105.138 181.508 104.171C181.515 103.19 181.323 102.216 180.945 101.31C180.566 100.405 180.008 99.5843 179.304 98.9L131.388 50.9833C130.699 50.284 129.879 49.729 128.974 49.3504C128.069 48.972 127.098 48.7778 126.117 48.7792Z" fill="black"/>
<path d="M187.354 97.8458C181.581 97.8391 176.041 95.5684 171.925 91.5208L139.246 58.7458C137.215 56.7323 135.602 54.3364 134.502 51.6964C133.402 49.0564 132.836 46.2246 132.836 43.3646C132.836 40.5045 133.402 37.6728 134.502 35.0328C135.602 32.3928 137.215 29.9969 139.246 27.9833L141.45 25.6833C145.546 21.5985 151.095 19.3047 156.879 19.3047C162.664 19.3047 168.212 21.5985 172.308 25.6833L205.083 58.3625C209.145 62.4707 211.423 68.0147 211.423 73.7917C211.423 79.5687 209.145 85.1127 205.083 89.2208L202.783 91.5208C198.667 95.5684 193.127 97.8391 187.354 97.8458ZM156.879 33.6375C154.904 33.6657 153.016 34.4553 151.608 35.8417L149.404 38.3333C148.717 39.0187 148.173 39.8328 147.801 40.7291C147.429 41.6253 147.237 42.586 147.237 43.5563C147.237 44.5265 147.429 45.4872 147.801 46.3834C148.173 47.2797 148.717 48.0938 149.404 48.7792L182.083 81.3625C183.484 82.7553 185.379 83.5372 187.354 83.5372C189.329 83.5372 191.224 82.7553 192.625 81.3625L194.829 79.0625C195.531 78.3755 196.087 77.5553 196.468 76.6503C196.848 75.7452 197.044 74.7734 197.044 73.7917C197.044 72.81 196.848 71.8381 196.468 70.9331C196.087 70.028 195.531 69.2079 194.829 68.5208L162.15 35.8417C160.755 34.438 158.859 33.6454 156.879 33.6375Z" fill="black"/>
<path d="M73.1208 210.833C70.2121 210.857 67.3288 210.292 64.6443 209.172C61.9597 208.052 59.5295 206.4 57.5 204.317L25.0125 171.637C22.9784 169.615 21.3641 167.212 20.2626 164.564C19.1611 161.916 18.5941 159.077 18.5941 156.208C18.5941 153.34 19.1611 150.5 20.2626 147.853C21.3641 145.205 22.9784 142.801 25.0125 140.779L27.2167 138.479C31.3248 134.418 36.8688 132.14 42.6458 132.14C48.4228 132.14 53.9667 134.418 58.075 138.479L90.7542 171.254C92.7853 173.268 94.3975 175.663 95.4977 178.304C96.5981 180.944 97.1644 183.776 97.1644 186.635C97.1644 189.495 96.5981 192.327 95.4977 194.967C94.3975 197.607 92.7853 200.003 90.7542 202.017L88.55 204.317C86.5396 206.373 84.1398 208.008 81.4908 209.127C78.8418 210.246 75.9964 210.826 73.1208 210.833ZM42.6458 146.625C41.6716 146.611 40.7041 146.79 39.7995 147.152C38.8948 147.514 38.0708 148.051 37.375 148.733L35.1708 151.033C34.4696 151.72 33.9124 152.541 33.5322 153.445C33.1519 154.351 32.9559 155.323 32.9559 156.304C32.9559 157.285 33.1519 158.258 33.5322 159.163C33.9124 160.068 34.4696 160.888 35.1708 161.575L67.85 194.254C68.5354 194.941 69.3495 195.486 70.2457 195.857C71.1419 196.229 72.1026 196.421 73.0729 196.421C74.0431 196.421 75.0039 196.229 75.9001 195.857C76.7963 195.486 77.6104 194.941 78.2958 194.254L80.5958 191.667C81.2826 190.981 81.8274 190.167 82.1991 189.271C82.5709 188.375 82.7621 187.414 82.7621 186.444C82.7621 185.474 82.5709 184.513 82.1991 183.617C81.8274 182.721 81.2826 181.906 80.5958 181.221L47.9167 148.637C47.2207 147.955 46.3967 147.418 45.4921 147.056C44.5874 146.694 43.6201 146.515 42.6458 146.529V146.625Z" fill="black"/>
<path d="M103.308 155.25C102.361 155.271 101.42 155.095 100.546 154.732C99.6714 154.368 98.8827 153.827 98.2292 153.142L76.6667 131.963C75.9885 131.302 75.4497 130.512 75.0817 129.64C74.7137 128.767 74.5241 127.83 74.5241 126.883C74.5241 125.937 74.7137 124.999 75.0817 124.127C75.4497 123.255 75.9885 122.464 76.6667 121.804L121.804 76.6667C122.458 75.9811 123.246 75.4395 124.121 75.0765C124.995 74.7134 125.936 74.537 126.883 74.5583C127.83 74.537 128.771 74.7134 129.645 75.0765C130.52 75.4395 131.309 75.9811 131.962 76.6667L153.333 98.2292C154.012 98.8895 154.55 99.6801 154.918 100.552C155.286 101.424 155.476 102.362 155.476 103.308C155.476 104.255 155.286 105.192 154.918 106.065C154.55 106.937 154.012 107.727 153.333 108.388L108.387 153.333C107.718 153.984 106.921 154.49 106.047 154.82C105.173 155.15 104.241 155.296 103.308 155.25ZM92.2875 126.5L103.308 137.521L137.904 102.925L126.883 92.2875L92.2875 126.5Z" fill="black"/>
<rect x="125.995" y="45.5968" width="82.8133" height="18.3247" rx="8" transform="rotate(44.664 125.995 45.5968)" fill="#8C8C8C"/>
<rect x="156.691" y="30.5708" width="61.4463" height="18.315" rx="8" transform="rotate(44.664 156.691 30.5708)" fill="#8C8C8C"/>
<rect x="103.788" y="184.558" width="82.8133" height="18.3247" rx="8" transform="rotate(-135.147 103.788 184.558)" fill="#8C8C8C"/>
<rect x="73.0005" y="199.841" width="61.4463" height="18.315" rx="8" transform="rotate(-135.147 73.0005 199.841)" fill="#8C8C8C"/>
</svg>
